<?xml version="1.0" encoding="utf-8"?>
<!-- Generator: Adobe Illustrator 19.0.0, SVG Export Plug-In . SVG Version: 6.00 Build 0)  -->
<svg version="1.1" id="Layer_1" xmlns="http://www.w3.org/2000/svg" xmlns:xlink="http://www.w3.org/1999/xlink" x="0px" y="0px"
	 viewBox="0 0 64 64" enable-background="new 0 0 64 64" xml:space="preserve">
<g>
	<path fill="#FFFFFF" d="M32,64C14.4,64,0,49.6,0,32S14.4,0,32,0s32,14.4,32,32S49.6,64,32,64z M32,4C16.6,4,4,16.6,4,32
		s12.6,28,28,28s28-12.6,28-28S47.4,4,32,4z"/>
	<g>
		<path fill="#FFFFFF" d="M23.8,38.3L22,33.8h-5.7l-1.8,4.5h-1.7L18.5,24h1.4l5.6,14.3H23.8z M21.5,32.3l-1.7-4.4
			c-0.2-0.6-0.4-1.2-0.7-2.1c-0.1,0.6-0.3,1.3-0.6,2.1l-1.7,4.4H21.5z"/>
		<path fill="#FFFFFF" d="M27.5,24h4c1.9,0,3.3,0.3,4.1,0.8s1.3,1.5,1.3,2.7c0,0.8-0.2,1.5-0.7,2.1s-1.2,0.9-2.1,1.1v0.1
			c2.2,0.4,3.3,1.5,3.3,3.4c0,1.3-0.4,2.3-1.3,3s-2.1,1.1-3.6,1.1h-5V24z M29.2,30.1h2.7c1.2,0,2-0.2,2.5-0.6s0.8-1,0.8-1.9
			c0-0.8-0.3-1.4-0.9-1.7s-1.5-0.5-2.7-0.5h-2.4V30.1z M29.2,31.6v5.3h3c1.2,0,2-0.2,2.6-0.7s0.9-1.1,0.9-2.1c0-0.9-0.3-1.5-0.9-2
			s-1.5-0.6-2.7-0.6H29.2z"/>
		<path fill="#FFFFFF" d="M46.6,25.3c-1.6,0-2.8,0.5-3.7,1.6s-1.4,2.5-1.4,4.3c0,1.9,0.4,3.3,1.3,4.3s2.1,1.5,3.7,1.5
			c1,0,2.1-0.2,3.4-0.5V38c-1,0.4-2.2,0.6-3.7,0.6c-2.1,0-3.7-0.6-4.9-1.9s-1.7-3.1-1.7-5.4c0-1.5,0.3-2.8,0.8-3.9s1.3-2,2.4-2.6
			s2.3-0.9,3.7-0.9c1.5,0,2.8,0.3,3.9,0.8l-0.7,1.4C48.7,25.6,47.7,25.3,46.6,25.3z"/>
	</g>
</g>
</svg>
