<?xml version="1.0" encoding="utf-8"?>
<!-- Generator: Adobe Illustrator 19.0.0, SVG Export Plug-In . SVG Version: 6.00 Build 0)  -->
<svg version="1.1" id="Layer_1" xmlns="http://www.w3.org/2000/svg" xmlns:xlink="http://www.w3.org/1999/xlink" x="0px" y="0px"
	 viewBox="0 0 221.8 36.6" enable-background="new 0 0 221.8 36.6" xml:space="preserve">
<g>
	<path fill="#FFFFFF" d="M95,11.6c-0.6,2-1.1,4-1.7,6.1c-1,3.5-2,6.9-2.9,10.4c-0.2,0.7-0.5,1-1.2,0.9c-1,0-2,0-3,0
		c-0.6,0-0.9-0.2-1.1-0.8c-2.3-8.6-4.6-17.2-6.9-25.8c-0.2-0.7,0.1-0.8,0.7-0.8c1.4,0,2.8,0,4.2,0c0.7,0,1,0.2,1.2,0.9
		c1.2,5.3,2.4,10.5,3.6,15.7c0.1,0.3,0.2,0.6,0.3,1c1.2-4.3,2.3-8.4,3.4-12.5c0.4-1.4,0.8-2.9,1.2-4.3c0.1-0.6,0.5-0.9,1.1-0.8
		c0.8,0,1.6,0.1,2.4,0c0.8-0.1,1.1,0.3,1.4,1c1.4,5.2,2.9,10.3,4.3,15.5c0.1,0.3,0.2,0.6,0.5,0.9c0.3-1.3,0.6-2.6,0.9-3.9
		c0.9-4.2,1.9-8.4,2.8-12.6c0.1-0.6,0.4-0.9,1.1-0.8c1.4,0,2.8,0,4.2,0c0.8,0,0.9,0.2,0.7,1c-1.7,6.3-3.4,12.7-5,19
		c-0.6,2.2-1.2,4.4-1.7,6.6c-0.2,0.7-0.5,1-1.3,1c-0.9,0-1.9,0-2.8,0c-0.8,0-1.1-0.3-1.3-1c-1.5-5.4-3-10.9-4.5-16.3
		C95.1,11.6,95,11.6,95,11.6z"/>
	<path fill="#FFFFFF" d="M151.5,16.4c1.7-2.1,3.4-4.1,5-6.2c0.5-0.6,1-0.9,1.8-0.9c1.3,0,2.6,0,3.9,0c0.3,0,0.7-0.1,0.8,0.2
		c0.1,0.3-0.2,0.4-0.4,0.6c-1.7,1.9-3.3,3.9-5,5.7c-0.6,0.6-0.5,1-0.1,1.7c2,3.4,4,6.9,6,10.4c0.5,0.9,0.5,1-0.6,1
		c-1.4,0-2.7,0-4.1,0c-0.7,0-1.1-0.3-1.5-0.9c-1.2-2.3-2.5-4.6-3.8-6.9c-0.1-0.1-0.2-0.3-0.3-0.4c-1.2,1.3-2.4,2.4-2,4.4
		c0.2,0.9,0,1.9,0,2.9c0,0.6-0.2,0.9-0.8,0.9c-1.3,0-2.7,0-4,0c-0.6,0-0.9-0.2-0.9-0.9c0-8.6,0-17.2,0-25.8c0-0.7,0.3-0.9,0.9-0.9
		c1.3,0,2.6,0,3.9,0c0.7,0,1,0.2,1,1c0,4.3,0,8.6,0,12.9C151.3,15.6,151.2,16,151.5,16.4z"/>
	<path fill="#FFFFFF" d="M109.7,19.1c0-1.7,0.2-3.4,0.8-5c1.1-2.9,3.3-4.4,6.2-5c1.6-0.3,3.3-0.3,4.9,0.1c3.9,1.1,6,3.6,6.3,7.9
		c0.2,2.2,0.1,4.4-0.5,6.6c-0.8,2.8-3.6,5.2-6.4,5.5c-1.6,0.2-3.2,0.3-4.8-0.1c-3.9-1-6-3.6-6.3-7.8
		C109.8,20.6,109.8,19.8,109.7,19.1z M115.5,19.1c-0.1,1.1,0,2.3,0.4,3.4c0.4,1.3,1.5,2.1,3,2.1c1.5,0,2.7-0.8,3-2
		c0.6-2.3,0.6-4.6,0-6.8c-0.3-1.3-1.5-2-3-2c-1.5,0-2.7,0.8-3.1,2.1C115.5,16.9,115.4,18,115.5,19.1z"/>
	<path fill="#FFFFFF" d="M8,24.2c1.8-6.6,3.7-13.2,5.5-19.7c0.2-0.7,0.5-1.5,0.6-2.2c0.2-0.7,0.6-0.9,1.3-0.9c0.7,0,1,0.2,1.2,0.9
		c1.9,6.9,3.9,13.8,5.9,20.8c0.1,0.4,0.2,0.8,0.5,1.5c0.8-3.4,1.5-6.5,2.3-9.7c1-4.2,2-8.4,2.9-12.6c0.2-0.7,1.7-1.2,2.3-0.8
		c0.4,0.3,0.1,0.6,0,0.9c-1.1,4.6-2.2,9.2-3.4,13.8c-1,3.9-1.9,7.8-2.9,11.7C24.1,28.6,23.9,29,23,29c-0.8,0-1.2-0.2-1.4-1.1
		c-2-7-4-14-6-21c-0.1-0.2-0.2-0.5-0.3-0.9c-0.8,2.6-1.5,5.1-2.2,7.5C11.7,18.4,10.4,23.2,9,28c-0.2,0.8-0.7,1-1.4,1
		c-0.7,0-1-0.3-1.2-1c-2-8.4-4.1-16.8-6.1-25.2C0.2,2.4-0.5,1.7,0.5,1.5c1.2-0.3,1.8,0,2,0.9c1.7,7.1,3.4,14.2,5.1,21.3
		C7.7,23.9,7.7,24.1,8,24.2z"/>
	<path fill="#FFFFFF" d="M173.6,29.4c-3,0-5.8-0.7-8.3-2.4c-1.1-0.7-1.1-0.8-0.2-1.8c0.6-0.7,1.2-1.3,1.7-2c0.4-0.5,0.7-0.5,1.3-0.1
		c1.9,1.3,4.1,2,6.4,1.8c0.5,0,0.9-0.1,1.3-0.4c0.7-0.4,1-0.9,0.9-1.7c-0.1-0.7-0.6-1.1-1.2-1.2c-1.6-0.3-3.2-0.4-4.8-0.7
		c-2.1-0.3-3.9-1.3-4.8-3.3c-1.3-2.7-0.1-6.5,2.7-7.7c4.3-1.8,8.4-1.3,12.4,1.1c0.6,0.4,0.6,0.7,0.2,1.2c-0.6,0.6-1.1,1.3-1.6,2
		c-0.4,0.6-0.8,0.7-1.4,0.3c-1.8-1-3.7-1.5-5.8-1.2c-0.9,0.1-1.5,0.5-1.5,1.5c0,1,0.7,1.3,1.4,1.4c1.8,0.3,3.5,0.4,5.3,0.8
		c2.6,0.5,4.3,2.4,4.6,4.7c0.3,2.7-1.1,5.3-3.4,6.5C177.3,29,175.6,29.4,173.6,29.4z"/>
	<path fill="#FFFFFF" d="M218.7,0c2.1,0,3.6,2,2.9,4.2c-1,3.8-2.2,7.5-3.3,11.3c-0.7,2.3-1.4,4.7-2,7c-0.8,2.8-2.4,5.2-4.9,6.8
		c-1,0.6-2.1,0.9-3.3,1.2c-0.8,0.2-0.9-0.3-0.7-1c1.4-5.4,2.7-10.8,4.1-16.2c0.7-3,1.5-5.9,2.2-8.9C214.4,1.9,216.6,0,218.7,0z"/>
	<path fill="#FFFFFF" d="M186.8,0c2.1,0.1,4.2,2,4.8,4.3c2.1,8.2,4.1,16.4,6.2,24.7c0.3,1.4,0.2,1.6-1.2,1.3c-4-1-6.3-3.8-7.5-7.6
		c-1.8-5.9-3.5-11.9-5.2-17.9c-0.3-0.9-0.4-1.8,0-2.8C184.3,0.7,185.3,0,186.8,0z"/>
	<path fill="#FFFFFF" d="M58.9,12.2c0-0.6,0-0.9,0-1.2c0-1.2,0.6-1.7,1.8-1.3c0.4,0.1,0.4,0.4,0.4,0.7c0,6.3,0.1,12.7-0.1,19
		c-0.1,5.4-3.9,7.6-8.7,7.2c-1.9-0.2-3.6-0.8-5-2.2c-0.4-0.4-0.7-0.9,0-1.4c0.5-0.4,0.8-1,1.6-0.2c1.9,1.9,4.3,2.1,6.8,1.4
		c2-0.6,2.8-2.3,3.1-4.1c0.2-1.2,0-2.5,0-3.8c-2.3,2.7-5.7,3.6-8.7,2.2c-1.7-0.8-2.8-2.1-3.3-3.8c-1-3.6-1.1-7.3,0-10.8
		c0.7-2.3,2.2-3.8,4.6-4.3C54.4,8.9,57,9.3,58.9,12.2z M58.9,19.2c0-0.7,0.1-1.4,0-2.1c-0.1-0.7-0.2-1.4-0.4-2.1
		c-0.5-2.2-2.3-3.5-4.8-3.5c-2.4-0.1-4.2,1.2-4.8,3.3c-0.8,2.9-0.8,5.8-0.1,8.6c0.6,2.4,2.4,3.6,4.9,3.6c2.6,0,4.2-1.4,4.8-3.8
		C58.9,21.8,59,20.5,58.9,19.2z"/>
	<path fill="#FFFFFF" d="M208.9,11.8c-0.3,3.6-1.3,6.9-3.5,9.8c-1,1.4-2.2,1.9-3.4,1.5c-0.7-0.3-1.3-0.8-1.7-1.4
		c-2.1-2.9-3.3-6.2-3.5-9.7c-0.1-2.6,2.1-5.1,4.7-5.5c2.8-0.4,5.1,0.4,6.6,2.9C208.6,10.2,208.9,11,208.9,11.8z"/>
	<path fill="#FFFFFF" d="M135.4,11.2c1.8-2.1,3.9-2.6,6.4-2.2c0.2,0,0.4,0.1,0.6,0.1c1.9,0.7,2,0.9,1.1,2.6
		c-0.5,0.8-0.9,1.6-1.4,2.5c-0.3,0.5-0.6,0.7-1.1,0.4c-0.3-0.2-0.7-0.4-1.1-0.5c-2.6-0.8-4.4,0.6-4.5,3.5c0,3.4,0,6.8,0,10.1
		c0,0.9-0.3,1.2-1.2,1.2c-1.2-0.1-2.3-0.1-3.5,0c-0.8,0-1-0.3-1-1.1c0-5.8,0-11.6,0-17.4c0-1,0.3-1.2,1.2-1.1c1.1,0.1,2.2,0.1,3.3,0
		c0.9-0.1,1.3,0.3,1.2,1.2C135.4,10.7,135.4,10.9,135.4,11.2z"/>
	<path fill="#FFFFFF" d="M72.4,19.8c-1.9,0-3.8,0-5.7,0c-0.6,0-0.9,0.1-0.8,0.8c0.1,1.6,0.2,3.1,1.2,4.4c2.1,3,7.4,2.8,9.7,0.1
		c0.5-0.6,0.8-0.6,1.3-0.1c0.5,0.5,0.9,0.8,0.2,1.5c-2.1,2.2-4.7,3-7.8,2.7c-2.9-0.2-4.9-1.7-6.1-4.3c-0.6-1.3-0.7-2.8-0.8-4.3
		c-0.1-2,0-4,0.5-6c0.7-2.9,2.8-4.9,5.7-5.4c3.3-0.5,6.1,0.3,8,3.2c1.1,1.6,1.2,3.5,1.3,5.3c0.1,2,0.3,1.9-1.9,1.9
		C75.7,19.8,74.1,19.8,72.4,19.8z M71.5,17.9c1.6,0,3.2,0,4.8,0c0.4,0,0.7-0.1,0.7-0.6c0-4.7-3.4-6.8-7.4-5.7
		c-2.2,0.6-3.5,2.7-3.6,5.3c0,0.7,0.1,1,0.9,1C68.4,17.9,69.9,17.9,71.5,17.9z"/>
	<path fill="#FFFFFF" d="M41.7,26.8c-2.7,3.1-7.3,2.9-9.6,1.8c-1.9-0.9-2.9-2.6-2.9-4.7c0-2.3,0.8-4.2,3.1-5.2
		c1.5-0.6,3-0.7,4.6-0.7c1.4-0.1,2.7,0,4.1,0c0.3,0,0.7,0.1,0.6-0.4c-0.1-1.4,0.3-2.9-0.4-4.3c-0.5-1-1.3-1.6-2.3-1.7
		c-2.4-0.3-4.9-0.5-7,1.1c-0.5,0.4-0.8,0-1-0.3c-0.3-0.4-0.8-0.9-0.1-1.4c1-0.7,2.2-1.2,3.4-1.4c1.9-0.4,3.8-0.3,5.6,0
		c2.3,0.4,3.8,2.1,3.9,4.6c0.1,4.7,0.1,9.4,0.1,14.1c0,0.8-0.6,0.7-1.1,0.7c-0.5,0-1.1,0-1-0.8C41.7,27.8,41.7,27.4,41.7,26.8z
		 M38.1,19.8c-1,0-2.4,0-3.7,0.2c-1.7,0.3-3,1.6-3.1,3.2c-0.1,1.9,0.9,3.3,2.8,3.8c1.4,0.4,2.8,0.3,4.2,0c1.8-0.4,3.2-2,3.3-3.5
		c0-1,0-2,0-3c0-0.5-0.2-0.7-0.7-0.7C40.1,19.8,39.3,19.8,38.1,19.8z"/>
</g>
</svg>
